# xmcd
#
# Track frame offsets:
#	150
#	14138
#	32901
#	45255
#	56314
#	74689
#	87623
#	100504
#	111647
#	125331
#	143574
#	161855
#	181556
#	193961
#	207875
#	218977
#	234748
#	249976
#	266932
#	281163
#	296867
#	312340
#
# Disc length: 4351 seconds
#
# Revision: 0
# Processed by: cddbd v1.4PL0 Copyright (c) Steve Scherf et al.
# Submitted via: EZCDDA 4.3.3.2
#
DISCID=5c10fd16
DTITLE=Vários - Variadas
DYEAR=1900
DGENRE=
TTITLE0=Oi Paixão - Tião C E Pardinho
TTITLE1=Calor De Paixão - Goiano E Paranaense
TTITLE2=Amor De Todo Jeito - Pião C. E Zé Paulo
TTITLE3=O Vestido - Ronaldo Viola E João Carvalho
TTITLE4=Paixão Proibida - Teodoro E Sampaio
TTITLE5=Arrependida - Tião C. E Pardinho
TTITLE6=Parede E Meia - Peão C. E Zé Paulo
TTITLE7=Brinquedo Quebrado - Goiano E Paranaense
TTITLE8=Telefonema - João Mulato E Pardinho
TTITLE9=Vem Por Ai - Felipe E Falcão
TTITLE10=Delícias De Amor - Teodoro E Sampaio
TTITLE11=Apaixonado - Tião C. E Pardinho
TTITLE12=Princesa - Goiano E Paranense
TTITLE13=Seguindo Seu Passos - Tião C. E Zé Paulo
TTITLE14=Caçador De Amor - Ronaldo Viola E João Carvalho
TTITLE15=Quando A Saudade Aperta - Teodoro E Sampaio
TTITLE16=Amor E Saudade - Tião C. E Pardinho
TTITLE17=Porta Do Mundo - Peão C. E Zé Paulo
TTITLE18=Chuva Na Vidraça - Ronaldo Viola E João Carvalho
TTITLE19=Encruzilhada - Peão C. E Zé Paulo
TTITLE20=Humilha - Teodoro E Sampaio
TTITLE21=Voltei Porque Te Amo - Goiano E Paranaense
EXTD=
EXTT0=
EXTT1=
EXTT2=
EXTT3=
EXTT4=
EXTT5=
EXTT6=
EXTT7=
EXTT8=
EXTT9=
EXTT10=
EXTT11=
EXTT12=
EXTT13=
EXTT14=
EXTT15=
EXTT16=
EXTT17=
EXTT18=
EXTT19=
EXTT20=
EXTT21=
PLAYORDER=
